<?xml version="1.0" encoding="utf-8"?>
<!-- Generator: Adobe Illustrator 19.2.1, SVG Export Plug-In . SVG Version: 6.00 Build 0)  -->
<svg version="1.1" id="Calque_1" xmlns="http://www.w3.org/2000/svg" xmlns:xlink="http://www.w3.org/1999/xlink" x="0px" y="0px"
	 viewBox="0 0 432 432" style="enable-background:new 0 0 432 432;" xml:space="preserve">
<style type="text/css">
	.st0{fill:#8CC63F;}
	.st1{fill:#F7931E;}
	.st2{fill:#39B54A;}
	.st3{fill:#61C46E;}
	.st4{fill:#0071BC;}
	.st5{fill:#CCCCCC;}
	.st6{fill:#999999;}
	.st7{fill:#FFFFFF;}
	.st8{fill:#666666;}
	.st9{fill:#BDCCD4;}
	.st10{fill:none;}
	.st11{fill:#29ABE2;}
	.st12{fill:#005D9C;}
	.st13{fill:#A38161;}
	.st14{fill:#D1B08A;}
	.st15{fill:#FBB03B;}
	.st16{fill:#ED1C24;}
	.st17{fill:#D44A50;}
	.st18{fill:#FF3333;}
	.st19{fill:#F15A24;}
	.st20{fill:#FBB80D;}
	.st21{fill:#FBC53B;}
	.st22{fill:#42210B;}
	.st23{fill:#E6E6E6;}
	.st24{fill:#D6D0D0;}
	.st25{fill:#C1E8E8;}
	.st26{fill:#1A1A1A;}
	.st27{fill:#99FFFF;}
	.st28{fill:#FCEE21;}
	.st29{fill:#00A99D;}
	.st30{fill:#22B573;}
	.st31{fill:#DBC0A2;}
	.st32{fill:#B5926B;}
	.st33{fill:#A67C52;}
	.st34{fill:#754C24;}
	.st35{fill:#FFADAD;}
	.st36{fill:#C7B299;}
	.st37{fill:#998675;}
	.st38{fill:#534741;}
	.st39{fill:#FF8C8C;}
	.st40{fill:#EBFCFC;}
	.st41{fill:#D4145A;}
	.st42{fill:#FF00FF;}
	.st43{fill:#FFCCCC;}
	.st44{fill:#FBDECE;}
	.st45{fill:#FF9EC2;}
	.st46{fill:#FF7BAC;}
	.st47{fill:#9E005D;}
	.st48{fill:#FFC600;}
	.st49{fill:#B1337D;}
	.st50{fill:#ED1E79;}
	.st51{fill:#662D91;}
	.st52{fill:#BA9BC9;}
	.st53{fill:#FFD133;}
	.st54{fill:#F79C7C;}
	.st55{fill:#FFDD66;}
	.st56{fill:#F2F2F2;}
	.st57{fill:#C1272D;}
	.st58{fill:#E8FDFF;}
	.st59{fill:#64AB05;}
	.st60{fill:#CCFFFF;}
	.st61{fill:#A9DDF3;}
	.st62{fill:#FFFF00;}
	.st63{fill:#B3B3B3;}
	.st64{fill:#009245;}
	.st65{fill:#FBD3A8;}
	.st66{fill:#FFD6E5;}
	.st67{fill:#FF2B7A;}
	.st68{fill:#785E42;}
	.st69{fill:#D99443;}
	.st70{fill:#66CBC4;}
	.st71{fill:#4D4D4D;}
	.st72{fill:#6B3310;}
	.st73{fill:#FEEFD8;}
	.st74{fill:#D10008;}
	.st75{fill:#FABE78;}
	.st76{fill:#E6ECF0;}
	.st77{fill:#D9E021;}
	.st78{fill:#FDD089;}
	.st79{fill:#FBB400;}
	.st80{fill:#FDDFB1;}
	.st81{fill:#FCC062;}
	.st82{fill:#DAE2E7;}
	.st83{fill:#DEE6EA;}
	.st84{fill:#F9A94B;}
	.st85{fill:#8C6239;}
	.st86{fill:#FF5258;}
	.st87{fill:#FBCB2D;}
	.st88{fill:#F3E3FF;}
	.st89{fill:#00877E;}
	.st90{fill:#CFEDD3;}
	.st91{fill:#ED9396;}
	.st92{fill:#ED454B;}
	.st93{fill:#F56E00;}
	.st94{fill:#CC5C00;}
	.st95{fill:#FFAA00;}
	.st96{fill:#D17100;}
	.st97{fill:#A10006;}
	.st98{fill:#7D0005;}
	.st99{fill:#333333;}
	.st100{fill:#CA5300;}
	.st101{fill:#C96D00;}
	.st102{fill:#006837;}
	.st103{fill:#CDAE78;}
	.st104{fill:#C96F06;}
	.st105{fill:#E0640D;}
	.st106{fill:#FFD26A;}
	.st107{fill:#7B9600;}
	.st108{fill:#CEDEDE;}
	.st109{fill:#5C3303;}
</style>
<g>
	<g>
		<path class="st8" d="M397.7,260.8c0.6,0,1.1-0.5,1.1-1.1v-3.8c0-0.6-0.5-1.1-1.1-1.1h-2.6c-0.1-1.1-0.2-2.1-0.4-3.2l2.4-0.4
			c0.6-0.1,1-0.7,0.9-1.3l-0.6-3.8c-0.1-0.6-0.7-1-1.3-0.9l-2.6,0.4c-0.3-1-0.6-2.1-0.9-3.1l2.3-0.8c0.6-0.2,0.9-0.8,0.7-1.4
			l-1.2-3.6c-0.2-0.6-0.8-0.9-1.4-0.7l-2.6,0.8c-0.4-1-0.9-1.9-1.4-2.9l2.2-1.1c0.5-0.3,0.8-0.9,0.5-1.5l-1.7-3.4
			c-0.3-0.5-0.9-0.8-1.5-0.5l-2.5,1.3c-0.6-0.9-1.2-1.8-1.8-2.6l2.1-1.5c0.5-0.4,0.6-1.1,0.2-1.5l-2.2-3.1c-0.4-0.5-1.1-0.6-1.5-0.2
			l-2.3,1.7c-0.7-0.8-1.4-1.6-2.2-2.3l1.8-1.8c0.4-0.4,0.4-1.1,0-1.6l-2.7-2.7c-0.4-0.4-1.1-0.4-1.6,0l-2,2
			c-0.8-0.7-1.6-1.3-2.5-1.9l1.5-2.1c0.4-0.5,0.2-1.2-0.2-1.5l-3.1-2.2c-0.5-0.4-1.2-0.2-1.5,0.2l-1.7,2.3c-0.9-0.5-1.8-1.1-2.8-1.5
			l1.2-2.3c0.3-0.5,0.1-1.2-0.5-1.5l-3.4-1.7c-0.5-0.3-1.2-0.1-1.5,0.5l-1.3,2.5c-1-0.4-2-0.8-3-1.1l0.8-2.5
			c0.2-0.6-0.1-1.2-0.7-1.4l-1.6-0.5v-22.2c0.2,0.1,0.4,0.3,0.6,0.4c6.2,4.8,7.8,13.3,9,21c5.1-0.1,10.2-0.3,15.3-0.4
			c0.7,0,1.5-0.1,2.2-0.5c0.8-0.5,1-1.5,1.2-2.4c0.7-3.4,1.5-6.9,0.5-10.3c-0.9-3.3-4.1-6.3-7.5-5.9c0.1-0.9,0.3-1.8,0.4-2.8
			c0.6-4.5,0.9-8.9,1.1-13.5c0.1-2.5,0-5-0.5-7.3c-0.7-3.3-2.1-6.1-4.9-7.8c-3.7-2.3-8.1-2.8-12.4-3.3c-10.2-1.1-20.9-1.8-31.8-2.3
			c-7.7-0.4-15.3-0.7-22.8-1.1c-4.7-0.2-9.2-0.4-13.7-0.7c-12.8-3.8-17.2-20.1-29-26.2c-5.7-3-11.4-4.3-17.8-4.6
			c-14.5-0.6-32.3-0.1-47-0.4c-1.6,0-3.3-0.1-4.7,0.7c-1.3,0.8-2.1,2.2-2.7,3.6l-4.3,25c-1.8,0-3.6-0.1-5.4-0.1
			c0.5-9.3,0.9-20.5,1.5-29.4c-1.7-0.2-3.4-0.2-5.1-0.2c-2-0.1-1.8,1.9-1.9,3.2c0,0.4,0,0.8-0.1,1.2c-7.6,0.2-17.7,0.1-25,0.4
			c-2,0.1-4,0.2-5.8,1c-1.5,0.7-2.7,1.9-3.9,3.1c-6.7,6.6-13.3,13.2-20,19.8c-26.1-0.2-37.4-0.3-63.5-0.1c-3.6,0-7.4,0.2-10.2,2.4
			c-2.3,1.8-3.4,4.7-4.4,7.5c-0.5,1.5-1,3-1.5,4.6c-1.8,5.6-3.1,11.5-3.4,17.3c-0.2,4.8,0.3,9.5,1.9,14.1l-0.4,0
			c-1-0.8-2.7-0.3-3.5,0.8c-0.8,1.1-0.9,2.5-0.9,3.9c0,2,0.2,4.1,0.6,6c0.1,0.6,0.2,1.2,0.6,1.7c0.4,0.7,1.2,1.1,2,1.3
			c2,0.7,4.2,0.7,6.3,0.6c14.7-0.3,14.6-0.3,29.3-0.6l0.1-0.2c4.4-9.7,11.9-18.2,21.5-22.8v32.7c-0.2,0.1-0.4,0.2-0.6,0.3
			c-0.1,0-0.1,0-0.2,0l-1.1-2.2c-0.3-0.5-0.9-0.8-1.5-0.5l-3.4,1.7c-0.4,0.2-0.6,0.5-0.6,0.9c-16.4,0-32.8,0.1-49.1-0.3l0.3,12.3
			c3.4,0,16.6,0.3,34.2,0.8c0.1,0.2,0.1,0.3,0.3,0.4l1.8,1.8c-0.6,0.7-1.2,1.5-1.8,2.2l-1.9-1.4c-0.5-0.4-1.2-0.2-1.5,0.2l-2.2,3.1
			c0,0,0,0.1-0.1,0.1l-0.1,0.2c-0.4,0.5-0.2,1.2,0.2,1.5l2.1,1.5c-0.5,0.8-1,1.6-1.4,2.5l-2-1c-0.5-0.3-1.2-0.1-1.5,0.5l0,0.1
			c-0.1,0.1-0.1,0.1-0.2,0.2l-1.7,3.4c-0.3,0.5-0.1,1.2,0.5,1.5l2.2,1.1c-0.4,0.9-0.7,1.8-1,2.7l-2-0.7c-0.5-0.2-1.1,0.1-1.3,0.6
			c-0.1,0.1-0.2,0.3-0.2,0.4l-1.2,3.6c-0.2,0.6,0.1,1.2,0.7,1.4l2.3,0.7c-0.2,0.9-0.4,1.9-0.6,2.9l-2-0.3c-0.5-0.1-1,0.2-1.2,0.6
			c-0.1,0.2-0.3,0.4-0.3,0.6l-0.6,3.8c-0.1,0.6,0.3,1.2,0.9,1.3l2.3,0.4c-0.1,1-0.1,2-0.1,2.9h-1.9c-0.4,0-0.8,0.3-1,0.7
			c-0.2,0.2-0.3,0.5-0.3,0.7v3.8c0,0.6,0.5,1.1,1.1,1.1h2.3c0.1,1,0.2,2,0.3,3l-1.8,0.3c-0.4,0.1-0.7,0.3-0.8,0.6
			c-0.2,0.2-0.3,0.6-0.3,0.9l0.6,3.8c0.1,0.6,0.7,1,1.3,0.9l2.2-0.4c0.2,1,0.5,2,0.8,2.9l-1.6,0.5c-0.3,0.1-0.5,0.3-0.7,0.6
			c-0.3,0.3-0.4,0.7-0.2,1.1l1.2,3.6c0.2,0.6,0.8,0.9,1.4,0.7l2.1-0.7c0.4,1,0.8,1.9,1.3,2.8l-1.5,0.7c-0.2,0.1-0.4,0.3-0.5,0.5
			c-0.3,0.3-0.4,0.8-0.2,1.3l1.7,3.4c0.3,0.5,0.9,0.8,1.5,0.5l1.9-1c0.6,0.9,1.1,1.8,1.7,2.6l-1.3,0.9c-0.2,0.1-0.3,0.3-0.3,0.4
			c-0.4,0.4-0.4,1-0.1,1.4l2.2,3.1c0.4,0.5,1.1,0.6,1.5,0.2l1.7-1.2c0.7,0.8,1.4,1.6,2.2,2.4l-1.1,1.1c-0.1,0.1-0.2,0.2-0.2,0.3
			c-0.4,0.4-0.4,1.1,0,1.5l2.7,2.7c0.4,0.4,1.1,0.4,1.6,0l1.5-1.5c0.8,0.7,1.7,1.4,2.6,2l-0.9,1.2c0,0,0,0.1-0.1,0.1l-0.1,0.2
			c-0.4,0.5-0.2,1.2,0.2,1.5l3.1,2.2c0.5,0.4,1.2,0.2,1.5-0.2l1.2-1.7c0.9,0.6,1.9,1.1,2.9,1.6l-0.8,1.6c-0.3,0.5-0.1,1.2,0.5,1.5
			l3.4,1.7c0.5,0.3,1.2,0.1,1.5-0.5l0-0.1c0.1-0.1,0.1-0.1,0.2-0.2l0.8-1.5c1,0.4,2,0.8,3,1.1l-0.6,1.7c-0.2,0.6,0.1,1.2,0.7,1.4
			l3.6,1.2c0.5,0.2,1.1-0.1,1.3-0.6c0.1-0.1,0.2-0.3,0.2-0.4l0.5-1.6c1,0.2,2.1,0.4,3.1,0.6l-0.3,1.8c-0.1,0.6,0.3,1.2,0.9,1.3
			l3.8,0.6c0.5,0.1,1-0.2,1.2-0.6c0.1-0.2,0.3-0.4,0.3-0.6l0.3-1.8c1,0.1,2.1,0.1,3.1,0.1v1.8c0,0.6,0.5,1.1,1.1,1.1h3.8
			c0.4,0,0.8-0.3,1-0.7c0.2-0.2,0.3-0.5,0.3-0.7v-1.8c1-0.1,2.1-0.2,3.1-0.4l0.3,1.8c0.1,0.6,0.7,1,1.3,0.9l3.8-0.6
			c0.4-0.1,0.7-0.3,0.8-0.6c0.2-0.2,0.3-0.6,0.3-0.9l-0.3-1.9c1-0.3,2-0.5,2.9-0.8l0.6,1.8c0.2,0.6,0.8,0.9,1.4,0.7l3.6-1.2
			c0.3-0.1,0.5-0.3,0.7-0.6c0.3-0.3,0.4-0.7,0.2-1.1l-0.6-1.9c0.9-0.4,1.8-0.8,2.7-1.3l0.9,1.7c0.3,0.5,0.9,0.8,1.5,0.5l3.4-1.7
			c0.2-0.1,0.4-0.3,0.5-0.5c0.3-0.3,0.4-0.8,0.2-1.3l-0.9-1.8c0.8-0.5,1.6-1.1,2.4-1.7l1.2,1.6c0.4,0.5,1.1,0.6,1.5,0.2l3.1-2.2
			c0.2-0.1,0.3-0.3,0.3-0.4c0.4-0.4,0.4-1,0.1-1.4l-1.3-1.8c0.7-0.7,1.4-1.3,2.1-2l1.4,1.4c0.4,0.4,1.1,0.4,1.6,0l2.7-2.7
			c0.1-0.1,0.2-0.2,0.2-0.3c0.4-0.4,0.4-1.1,0-1.5l-1.6-1.6c0.6-0.8,1.2-1.5,1.8-2.3l1.7,1.2c0.5,0.4,1.2,0.2,1.5-0.2l2.2-3.1
			c0,0,0-0.1,0.1-0.1l0.1-0.2c0.4-0.5,0.2-1.2-0.2-1.5l-1.9-1.4c0.5-0.8,1-1.7,1.4-2.5l1.9,1c0.5,0.3,1.2,0.1,1.5-0.5l0-0.1
			c0.1-0.1,0.1-0.1,0.2-0.2l1.7-3.4c0.3-0.5,0.1-1.2-0.5-1.5l-2.2-1.1c0.4-0.9,0.7-1.8,1-2.7l2,0.7c0.5,0.2,1.1-0.1,1.3-0.6
			c0.1-0.1,0.2-0.3,0.2-0.4l1.2-3.6c0.2-0.6-0.1-1.2-0.7-1.4l-2.4-0.8c0.2-0.9,0.4-1.9,0.5-2.9l2.1,0.3c0.5,0.1,1-0.2,1.2-0.6
			c0.1-0.2,0.3-0.4,0.3-0.6l0.6-3.8c0.1-0.6-0.3-1.2-0.9-1.3l-2.5-0.4c0.1-1,0.1-1.9,0.1-2.9h2.2c0.4,0,0.8-0.3,1-0.7
			c0.2-0.2,0.3-0.5,0.3-0.7v-3.8c0-0.6-0.5-1.1-1.1-1.1h-2.6c0-0.4-0.1-0.7-0.1-1.1l30.7-20c1,1.8,2,3.5,3,5.3
			c0.3,0.5,0.5,0.9,1,1.2c0.4,0.2,0.8,0.2,1.3,0.3c3.3,0.1,6.6,0.3,9.9,0.4c0.4,0,0.9,0,1.3-0.2c0.4-0.2,0.7-0.6,0.9-0.9
			c1.6-2.2,3.1-4.5,4.7-6.7c6.7,4,27.3,16.4,45,27.1c-0.3,0.2-0.4,0.5-0.4,0.9v3.8c0,0.6,0.5,1.1,1.1,1.1h2.3
			c0.1,1.1,0.2,2.2,0.4,3.2l-2,0.3c-0.6,0.1-1,0.7-0.9,1.3l0.6,3.8c0.1,0.6,0.7,1,1.3,0.9l2.2-0.4c0.3,1.1,0.5,2.1,0.9,3.1l-1.9,0.6
			c-0.6,0.2-0.9,0.8-0.7,1.4l1.2,3.6c0.2,0.6,0.8,0.9,1.4,0.7l2.1-0.7c0.4,1,0.9,2,1.4,3l-1.7,0.9c-0.5,0.3-0.8,0.9-0.5,1.5l1.7,3.4
			c0.3,0.5,0.9,0.8,1.5,0.5l1.9-1c0.6,0.9,1.2,1.8,1.8,2.7l-1.5,1.1c-0.5,0.4-0.6,1.1-0.2,1.5l2.2,3.1c0.4,0.5,1.1,0.6,1.5,0.2
			l1.7-1.2c0.7,0.8,1.5,1.6,2.2,2.4l-1.3,1.3c-0.4,0.4-0.4,1.1,0,1.6l2.7,2.7c0.4,0.4,1.1,0.4,1.6,0l1.5-1.5c0.8,0.7,1.7,1.4,2.6,2
			l-1.1,1.5c-0.4,0.5-0.2,1.2,0.2,1.5l3.1,2.2c0.5,0.4,1.2,0.2,1.5-0.2l1.2-1.7c0.9,0.6,1.9,1.1,2.9,1.6l-0.8,1.6
			c-0.3,0.5-0.1,1.2,0.5,1.5l3.4,1.7c0.5,0.3,1.2,0.1,1.5-0.5l0.9-1.8c1,0.4,2,0.8,3.1,1.1l-0.6,1.7c-0.2,0.6,0.1,1.2,0.7,1.4
			l3.6,1.2c0.6,0.2,1.2-0.1,1.4-0.7l0.6-2c1.1,0.2,2.1,0.4,3.2,0.6l-0.3,1.8c-0.1,0.6,0.3,1.2,0.9,1.3l3.8,0.6
			c0.6,0.1,1.2-0.3,1.3-0.9l0.3-2.1c1.1,0.1,2.2,0.1,3.3,0.1v1.8c0,0.6,0.5,1.1,1.1,1.1h3.8c0.6,0,1.1-0.5,1.1-1.1v-2.1
			c1.1-0.1,2.2-0.2,3.3-0.4l0.3,1.8c0.1,0.6,0.7,1,1.3,0.9l3.8-0.6c0.6-0.1,1-0.7,0.9-1.3l-0.3-2.1c1.1-0.3,2.1-0.6,3.2-0.9l0.6,1.8
			c0.2,0.6,0.8,0.9,1.4,0.7l3.6-1.2c0.6-0.2,0.9-0.8,0.7-1.4l-0.7-2c1-0.4,2-0.9,3-1.4l0.9,1.7c0.3,0.5,0.9,0.8,1.5,0.5l3.4-1.7
			c0.5-0.3,0.8-0.9,0.5-1.5l-1-2c0.9-0.6,1.8-1.2,2.7-1.8l1.2,1.6c0.4,0.5,1.1,0.6,1.5,0.2l3.1-2.2c0.5-0.4,0.6-1.1,0.2-1.5
			l-1.3-1.8c0.8-0.7,1.6-1.5,2.4-2.2l1.4,1.4c0.4,0.4,1.1,0.4,1.6,0l2.7-2.7c0.4-0.4,0.4-1.1,0-1.6l-1.6-1.6c0.7-0.8,1.3-1.7,2-2.6
			l1.7,1.2c0.5,0.4,1.2,0.2,1.5-0.2l2.2-3.1c0.4-0.5,0.2-1.2-0.2-1.5l-1.9-1.4c0.5-0.9,1.1-1.9,1.6-2.8l1.9,1
			c0.5,0.3,1.2,0.1,1.5-0.5l1.7-3.4c0.3-0.5,0.1-1.2-0.5-1.5l-2.2-1.1c0.4-1,0.8-2,1.1-3l2.1,0.7c0.6,0.2,1.2-0.1,1.4-0.7l1.2-3.6
			c0.2-0.6-0.1-1.2-0.7-1.4l-2.4-0.8c0.2-1,0.4-2.1,0.6-3.2l2.3,0.4c0.6,0.1,1.2-0.3,1.3-0.9l0.6-3.8c0.1-0.6-0.3-1.2-0.9-1.3
			l-2.5-0.4c0.1-1.1,0.1-2.1,0.1-3.2H397.7z M346.9,175.1c0.6,0.2,1.2,0.3,1.8,0.5V203c-0.7-0.2-1.5-0.3-2.3-0.4l0.4-2.6
			c0.1-0.6-0.3-1.2-0.9-1.3l-1.2-0.2v-24C345.4,174.7,346.2,174.9,346.9,175.1z M339.6,173.9v27.9c-0.8,0-1.5-0.1-2.3-0.1v-2.6
			c0-0.6-0.5-1.1-1.1-1.1h-0.8v-24C336.8,173.9,338.2,173.9,339.6,173.9z M330.3,174.8v27.3c-0.7,0.1-1.4,0.2-2.2,0.3l-0.4-2.6
			c-0.1-0.6-0.7-1-1.3-0.9l-0.7,0.1v-22.8C327.2,175.6,328.7,175.1,330.3,174.8z M142.2,122.4c0.4-0.5,0.9-0.9,1.4-1.2
			c0.7-0.4,1.6-0.4,2.5-0.5c9.2-0.4,18.4-0.5,27.6-0.5c-0.2,6-0.3,12.1-0.6,19c-15.2-0.3-30.4-0.6-45.6-0.7
			C132.4,133.1,137.3,127.8,142.2,122.4z M121.5,173.1v28.7c-0.7,0-1.5-0.1-2.2-0.1v-2.6c0-0.6-0.5-1.1-1.1-1.1h-0.7v-26.1
			C118.9,172.2,120.2,172.6,121.5,173.1z M112.4,171.1V202c-0.8,0.1-1.5,0.2-2.2,0.3l-0.4-2.6c-0.1-0.6-0.7-1-1.3-0.9l-0.3,0V171
			C109.6,171,111,171,112.4,171.1z M103.1,171.5v32.2c-0.6,0.2-1.3,0.4-1.9,0.5l-0.8-2.4c-0.2-0.6-0.8-0.9-1.4-0.7l-0.5,0.2v-28.7
			C100,172.2,101.6,171.8,103.1,171.5z M171.6,235.2l0.3-0.1c-0.2-0.4-0.3-0.7-0.5-1l2-1c0.2-0.1,0.4-0.3,0.5-0.5
			c0.3-0.3,0.4-0.8,0.2-1.3l-1.7-3.4c-0.3-0.5-0.9-0.8-1.5-0.5l-2.5,1.3c-0.5-0.9-1.1-1.7-1.7-2.5l1.8-1.3c0.2-0.1,0.3-0.3,0.3-0.4
			c0.3-0.3,0.4-0.7,0.3-1c17.2,0.6,30.1,1,33.5,1.2l0.3,0c0.1,0.1,0.1,0.2,0.2,0.3l-31.3,10.5C171.7,235.3,171.7,235.2,171.6,235.2z
			 M166.5,220.2l2.1,2.9l0,0L166.5,220.2z M176.8,237.9L176.8,237.9l-0.3-1L176.8,237.9z M176.7,251.6c0.1,0.6,0.2,1.2,0.2,1.7h0
			C176.9,252.8,176.8,252.2,176.7,251.6z M179.5,246.8l0-0.1l0.2-0.1l-0.1-0.6c-0.1-0.6-0.7-1-1.3-0.9l-2.6,0.4
			c-0.3-1-0.5-1.9-0.8-2.9l2.1-0.7c0.3-0.1,0.5-0.3,0.7-0.6c0.3-0.3,0.4-0.7,0.2-1.1l-0.7-2.2l28-9.4c0.2,0.4,0.4,0.8,0.7,1.2
			L179.5,246.8z M278.6,250.3l-2.1-0.3c-0.6-0.1-1.2,0.3-1.3,0.9l-0.6,3.7c-16.5-9.9-35.7-21.5-42.3-25.4c0.3-0.5,0.7-1,1-1.5
			l43.8,14.5l-0.9,2.7c-0.2,0.6,0.1,1.2,0.7,1.4l2.3,0.7C279,248.2,278.7,249.3,278.6,250.3z M284.6,232.9l-2-1
			c-0.5-0.3-1.2-0.1-1.5,0.5l-1.7,3.4c-0.3,0.5-0.1,1.2,0.5,1.5l2.2,1.1c-0.1,0.3-0.3,0.7-0.4,1l-45.8-15.2c0.1-0.1,0.2-0.3,0.3-0.4
			c13.3,0.4,26.7,0.9,40,0.9c1.3,0,4.7-0.1,9.6-0.2l-1.9,2.6c-0.4,0.5-0.2,1.2,0.2,1.5l2.1,1.5C285.6,231,285.1,232,284.6,232.9z
			 M304.6,206.7c-0.5,0.3-0.8,0.9-0.5,1.5l0.3,0.5c-47.5,0.2-114.1,0.1-151.1-0.2l-1.5-1.1c-0.5-0.4-1.2-0.2-1.5,0.2l-0.6,0.8
			c-1.3,0-2.6,0-3.8,0c0,0,0,0-0.1,0l1.2-2.3c0.3-0.5,0.1-1.2-0.5-1.5l-3.4-1.7c-0.5-0.3-1.2-0.1-1.5,0.5l-1.3,2.5
			c-1-0.4-2-0.8-3-1.1l0.8-2.5c0.2-0.6-0.1-1.2-0.7-1.4l-3.6-1.2c-0.6-0.2-1.2,0.1-1.4,0.7l-0.9,2.7c-1-0.2-2.1-0.4-3.1-0.6l0.4-2.6
			c0.1-0.6-0.3-1.2-0.9-1.3l-1.3-0.2v-22.9c0.9,0.5,1.8,1.1,2.6,1.8c3.8,2.9,6.7,6.6,9.2,10.7c1.8,3,3.4,6.2,4.8,9.4
			c0.1,0,0.3,0,0.4,0c53.6,1.1,106.5,1.9,160.1,3.1l0.5,0.1c1.8-9.2,7.7-16.7,15.6-21.6c0.2-0.1,0.4-0.3,0.7-0.4v25.3
			c-0.5,0.1-0.9,0.3-1.4,0.4l-0.8-2.4c-0.2-0.6-0.8-0.9-1.4-0.7l-3.6,1.2c-0.6,0.2-0.9,0.8-0.7,1.4l0.9,2.6c-1,0.4-1.9,0.9-2.9,1.3
			l-1.1-2.2c-0.3-0.5-0.9-0.8-1.5-0.5L304.6,206.7z"/>
	</g>
	<g>
		<path class="st57" d="M382.6,186c-0.9-3.3-4.1-6.3-7.5-5.9c0.1-0.9,0.3-1.8,0.4-2.8c0.6-4.5,0.9-8.9,1.1-13.5c0.1-2.5,0-5-0.5-7.3
			c-0.7-3.3-2.1-6.1-4.9-7.8c-3.7-2.3-8.1-2.8-12.4-3.3c-10.2-1.1-20.9-1.8-31.8-2.3c-7.7-0.4-15.3-0.7-22.8-1.1
			c-4.7-0.2-9.2-0.4-13.7-0.7c-12.8-3.8-17.2-20.1-29-26.2c-5.7-3-11.4-4.3-17.8-4.6c-14.5-0.6-32.3-0.1-47-0.4
			c-1.6,0-3.3-0.1-4.7,0.7c-1.3,0.8-2.1,2.2-2.7,3.6l-4.3,25c-1.8,0-3.6-0.1-5.4-0.1c-2.1,0-4.3-0.1-6.4-0.1
			c-15.2-0.3-30.4-0.6-45.6-0.7c-2.8,0-5.5-0.1-8.3-0.1c-26.1-0.2-37.4-0.3-63.5-0.1c-3.6,0-7.4,0.2-10.2,2.4
			c-2.3,1.8-3.4,4.7-4.4,7.5c-0.5,1.5-1,3-1.5,4.6c-1.8,5.6-3.1,11.5-3.4,17.3c-0.2,4.8,0.3,9.5,1.9,14.1l-0.4,0
			c-1-0.8-2.7-0.3-3.5,0.8c-0.8,1.1-0.9,2.5-0.9,3.9c0,2,0.2,4.1,0.6,6c0.1,0.6,0.2,1.2,0.6,1.7c0.4,0.7,1.2,1.1,2,1.3
			c2,0.7,4.2,0.7,6.3,0.6c14.7-0.3,14.6-0.3,29.3-0.6l0.1-0.2c4.4-9.7,11.9-18.2,21.5-22.8c0.9-0.4,1.8-0.8,2.7-1.2
			c0.8-0.3,1.6-0.6,2.5-0.9c1.5-0.5,3-0.8,4.6-1.1c1.7-0.3,3.4-0.5,5.1-0.5c1.4,0,2.8,0,4.2,0.1c1.7,0.1,3.4,0.4,5.1,0.8
			c1.3,0.3,2.7,0.7,4,1.2c1.8,0.7,3.5,1.5,5.1,2.5c0.9,0.5,1.8,1.1,2.6,1.8c3.8,2.9,6.7,6.6,9.2,10.7c1.8,3,3.4,6.2,4.8,9.4
			c0.1,0,0.3,0,0.4,0c53.6,1.1,106.5,1.9,160.1,3.1l0.5,0.1c1.8-9.2,7.7-16.7,15.6-21.6c0.2-0.1,0.4-0.3,0.7-0.4
			c1.6-1,3.4-1.8,5.1-2.4c1.5-0.6,3-1,4.6-1.4c1.7-0.4,3.4-0.6,5.1-0.8c1.4-0.1,2.8-0.1,4.2-0.1c1.7,0.1,3.4,0.3,5.1,0.6
			c0.7,0.1,1.5,0.3,2.2,0.5c0.6,0.2,1.2,0.3,1.8,0.5c1.8,0.6,3.6,1.4,5.1,2.5c0.2,0.1,0.4,0.3,0.6,0.4c6.2,4.8,7.8,13.3,9,21
			c5.1-0.1,10.2-0.3,15.3-0.4c0.7,0,1.5-0.1,2.2-0.5c0.8-0.5,1-1.5,1.2-2.4C382.8,192.9,383.5,189.3,382.6,186z"/>
	</g>
	<path class="st58" d="M223.4,116l28.4,0.5c0,0,7.5,0.6,12.4,6.7c4.9,6,15.6,18.7,15.6,18.7l0.1,2l-55.6-0.5L223.4,116z"/>
	<path class="st58" d="M216.8,115.6c0,0-18.4-1.5-19.1,1c-0.6,2.6-1.2,22-1.2,22s-0.5,4,5.5,4.1c6,0.1,14.7,0.1,14.7,0.1V115.6z"/>
	<g>
		<path d="M171.2,192.6c10.9-5.2,23.8-13,34.7-19.3c-3.6,6.3-7.2,12.5-10.8,18.8c7.4-4.7,14.9-8.8,22.9-12.9
			c-1.8,3.9-6,13.3-5.5,13.8c0.5,0.5,41.4-16,61.3-23.3c-4.8,7.3-12.4,13.5-18.2,21.1c18.4-11,51.3-33.4,71.3-47.6
			c-7.7-0.4-15.3-0.7-22.8-1.1c-24.3,15.7-49.9,29.8-77.6,37.9c0.7-2.3,7.5-13.4,6.5-12.9c-5.6,2.4-18.4,9.1-24,11.4
			c3-7.7,6-15.5,9-23.2c-14.3,7.7-28.6,15.4-42.9,23.1c0.4-3.4,0.9-6.9,1.3-10.3c-12.9,6.9-21.9,11.5-37.9,20c1.8,3,3.4,6.2,4.8,9.4
			c0.1,0,0.3,0,0.4,0c6.8-4.2,19.6-10.1,26.3-12.7C170.1,185.9,171.1,191.4,171.2,192.6z"/>
	</g>
	<path d="M397.7,260.8c0.6,0,1.1-0.5,1.1-1.1v-3.8c0-0.6-0.5-1.1-1.1-1.1h-2.6c-0.1-1.1-0.2-2.1-0.4-3.2l2.4-0.4
		c0.6-0.1,1-0.7,0.9-1.3l-0.6-3.8c-0.1-0.6-0.7-1-1.3-0.9l-2.6,0.4c-0.3-1-0.6-2.1-0.9-3.1l2.3-0.8c0.6-0.2,0.9-0.8,0.7-1.4
		l-1.2-3.6c-0.2-0.6-0.8-0.9-1.4-0.7l-2.6,0.8c-0.4-1-0.9-1.9-1.4-2.9l2.2-1.1c0.5-0.3,0.8-0.9,0.5-1.5l-1.7-3.4
		c-0.3-0.5-0.9-0.8-1.5-0.5l-2.5,1.3c-0.6-0.9-1.2-1.8-1.8-2.6l2.1-1.5c0.5-0.4,0.6-1.1,0.2-1.5l-2.2-3.1c-0.4-0.5-1.1-0.6-1.5-0.2
		l-2.3,1.7c-0.7-0.8-1.4-1.6-2.2-2.3l1.8-1.8c0.4-0.4,0.4-1.1,0-1.6l-2.7-2.7c-0.4-0.4-1.1-0.4-1.6,0l-2,2c-0.8-0.7-1.6-1.3-2.5-1.9
		l1.5-2.1c0.4-0.5,0.2-1.2-0.2-1.5l-3.1-2.2c-0.5-0.4-1.2-0.2-1.5,0.2l-1.7,2.3c-0.9-0.5-1.8-1.1-2.8-1.5l1.2-2.3
		c0.3-0.5,0.1-1.2-0.5-1.5l-3.4-1.7c-0.5-0.3-1.2-0.1-1.5,0.5l-1.3,2.5c-1-0.4-2-0.8-3-1.1l0.8-2.5c0.2-0.6-0.1-1.2-0.7-1.4
		l-1.6-0.5l-2-0.7c-0.6-0.2-1.2,0.1-1.4,0.7l-0.9,2.7c-0.3-0.1-0.6-0.1-0.8-0.2c-0.7-0.2-1.5-0.3-2.3-0.4l0.4-2.6
		c0.1-0.6-0.3-1.2-0.9-1.3l-1.2-0.2l-2.6-0.4c-0.6-0.1-1.2,0.3-1.3,0.9l-0.4,2.8c-0.3,0-0.6,0-0.9,0c-0.8,0-1.5-0.1-2.3-0.1v-2.6
		c0-0.6-0.5-1.1-1.1-1.1h-0.8h-3c-0.6,0-1.1,0.5-1.1,1.1v2.8c-0.3,0-0.7,0.1-1,0.1c-0.7,0.1-1.4,0.2-2.2,0.3l-0.4-2.6
		c-0.1-0.6-0.7-1-1.3-0.9l-0.7,0.1l-3,0.5c-0.6,0.1-1,0.7-0.9,1.3l0.4,2.8c-0.5,0.1-1.1,0.3-1.6,0.4c-0.5,0.1-0.9,0.3-1.4,0.4
		l-0.8-2.4c-0.2-0.6-0.8-0.9-1.4-0.7l-3.6,1.2c-0.6,0.2-0.9,0.8-0.7,1.4l0.9,2.6c-1,0.4-1.9,0.9-2.9,1.3l-1.1-2.2
		c-0.3-0.5-0.9-0.8-1.5-0.5l-3.4,1.7c-0.5,0.3-0.8,0.9-0.5,1.5l0.3,0.5l1,1.9c-0.9,0.6-1.8,1.1-2.7,1.8l-1.4-2
		c-0.4-0.5-1.1-0.6-1.5-0.2l-3.1,2.2c-0.5,0.4-0.6,1.1-0.2,1.5l1.6,2.2c-0.8,0.7-1.6,1.4-2.4,2.2l-1.7-1.7c-0.4-0.4-1.1-0.4-1.6,0
		l-2.7,2.7c-0.4,0.4-0.4,1.1,0,1.6l1.9,1.9c-0.5,0.6-0.9,1.1-1.4,1.7c-0.6,0-1.1,0-1.7,0.1l-0.9-0.6c-0.5-0.4-1.2-0.2-1.5,0.2
		l-0.3,0.5l-1.9,2.6c-0.4,0.5-0.2,1.2,0.2,1.5l2.1,1.5c-0.6,0.9-1.1,1.8-1.6,2.8l-2-1c-0.5-0.3-1.2-0.1-1.5,0.5l-1.7,3.4
		c-0.3,0.5-0.1,1.2,0.5,1.5l2.2,1.1c-0.1,0.3-0.3,0.7-0.4,1c-0.3,0.7-0.5,1.3-0.7,2l-2.1-0.7c-0.6-0.2-1.2,0.1-1.4,0.7l-0.3,0.9
		l-0.9,2.7c-0.2,0.6,0.1,1.2,0.7,1.4l2.3,0.7c-0.2,1-0.5,2.1-0.6,3.2l-2.1-0.3c-0.6-0.1-1.2,0.3-1.3,0.9l-0.6,3.7l0,0
		c-0.1,0.6,0.3,1.2,0.9,1.3l1.7,0.3c0.2,0.1,0.4,0.3,0.7,0.4c-0.1,1-0.1,2-0.1,2.9h-2.1c-0.3,0-0.5,0.1-0.7,0.2
		c-0.3,0.2-0.4,0.5-0.4,0.9v3.8c0,0.6,0.5,1.1,1.1,1.1h2.3c0.1,1.1,0.2,2.2,0.4,3.2l-2,0.3c-0.6,0.1-1,0.7-0.9,1.3l0.6,3.8
		c0.1,0.6,0.7,1,1.3,0.9l2.2-0.4c0.3,1.1,0.5,2.1,0.9,3.1l-1.9,0.6c-0.6,0.2-0.9,0.8-0.7,1.4l1.2,3.6c0.2,0.6,0.8,0.9,1.4,0.7
		l2.1-0.7c0.4,1,0.9,2,1.4,3l-1.7,0.9c-0.5,0.3-0.8,0.9-0.5,1.5l1.7,3.4c0.3,0.5,0.9,0.8,1.5,0.5l1.9-1c0.6,0.9,1.2,1.8,1.8,2.7
		l-1.5,1.1c-0.5,0.4-0.6,1.1-0.2,1.5l2.2,3.1c0.4,0.5,1.1,0.6,1.5,0.2l1.7-1.2c0.7,0.8,1.5,1.6,2.2,2.4l-1.3,1.3
		c-0.4,0.4-0.4,1.1,0,1.6l2.7,2.7c0.4,0.4,1.1,0.4,1.6,0l1.5-1.5c0.8,0.7,1.7,1.4,2.6,2l-1.1,1.5c-0.4,0.5-0.2,1.2,0.2,1.5l3.1,2.2
		c0.5,0.4,1.2,0.2,1.5-0.2l1.2-1.7c0.9,0.6,1.9,1.1,2.9,1.6l-0.8,1.6c-0.3,0.5-0.1,1.2,0.5,1.5l3.4,1.7c0.5,0.3,1.2,0.1,1.5-0.5
		l0.9-1.8c1,0.4,2,0.8,3.1,1.1l-0.6,1.7c-0.2,0.6,0.1,1.2,0.7,1.4l3.6,1.2c0.6,0.2,1.2-0.1,1.4-0.7l0.6-2c1.1,0.2,2.1,0.4,3.2,0.6
		l-0.3,1.8c-0.1,0.6,0.3,1.2,0.9,1.3l3.8,0.6c0.6,0.1,1.2-0.3,1.3-0.9l0.3-2.1c1.1,0.1,2.2,0.1,3.3,0.1v1.8c0,0.6,0.5,1.1,1.1,1.1
		h3.8c0.6,0,1.1-0.5,1.1-1.1v-2.1c1.1-0.1,2.2-0.2,3.3-0.4l0.3,1.8c0.1,0.6,0.7,1,1.3,0.9l3.8-0.6c0.6-0.1,1-0.7,0.9-1.3l-0.3-2.1
		c1.1-0.3,2.1-0.6,3.2-0.9l0.6,1.8c0.2,0.6,0.8,0.9,1.4,0.7l3.6-1.2c0.6-0.2,0.9-0.8,0.7-1.4l-0.7-2c1-0.4,2-0.9,3-1.4l0.9,1.7
		c0.3,0.5,0.9,0.8,1.5,0.5l3.4-1.7c0.5-0.3,0.8-0.9,0.5-1.5l-1-2c0.9-0.6,1.8-1.2,2.7-1.8l1.2,1.6c0.4,0.5,1.1,0.6,1.5,0.2l3.1-2.2
		c0.5-0.4,0.6-1.1,0.2-1.5l-1.3-1.8c0.8-0.7,1.6-1.5,2.4-2.2l1.4,1.4c0.4,0.4,1.1,0.4,1.6,0l2.7-2.7c0.4-0.4,0.4-1.1,0-1.6l-1.6-1.6
		c0.7-0.8,1.3-1.7,2-2.6l1.7,1.2c0.5,0.4,1.2,0.2,1.5-0.2l2.2-3.1c0.4-0.5,0.2-1.2-0.2-1.5l-1.9-1.4c0.5-0.9,1.1-1.9,1.6-2.8l1.9,1
		c0.5,0.3,1.2,0.1,1.5-0.5l1.7-3.4c0.3-0.5,0.1-1.2-0.5-1.5l-2.2-1.1c0.4-1,0.8-2,1.1-3l2.1,0.7c0.6,0.2,1.2-0.1,1.4-0.7l1.2-3.6
		c0.2-0.6-0.1-1.2-0.7-1.4l-2.4-0.8c0.2-1,0.4-2.1,0.6-3.2l2.3,0.4c0.6,0.1,1.2-0.3,1.3-0.9l0.6-3.8c0.1-0.6-0.3-1.2-0.9-1.3
		l-2.5-0.4c0.1-1.1,0.1-2.1,0.1-3.2H397.7z"/>
	<path d="M179.8,260.8c0.4,0,0.8-0.3,1-0.7c0.2-0.2,0.3-0.5,0.3-0.7v-3.8c0-0.6-0.5-1.1-1.1-1.1h-2.6c0-0.4-0.1-0.9-0.1-1.3
		l-0.2,0.1c-0.1-0.6-0.1-1.2-0.2-1.7l2.4-0.4c0.6-0.1,1-0.7,0.9-1.3l-0.5-3.1l0-0.1l0.2-0.1l-0.1-0.6c-0.1-0.6-0.7-1-1.3-0.9
		l-2.6,0.4c-0.3-1-0.5-1.9-0.8-2.9l2.1-0.7c0.3-0.1,0.5-0.3,0.7-0.6c0.3-0.3,0.4-0.7,0.2-1.1l-0.8-2.4l-0.3,0.1l-0.3-1
		c-0.2-0.6-0.8-0.9-1.4-0.7l-2.6,0.8c-0.2-0.6-0.5-1.1-0.8-1.7c0-0.1-0.1-0.1-0.1-0.2l0.3-0.1c-0.2-0.4-0.3-0.7-0.5-1l2-1
		c0.2-0.1,0.4-0.3,0.5-0.5c0.3-0.3,0.4-0.8,0.2-1.3l-1.7-3.4c-0.3-0.5-0.9-0.8-1.5-0.5l-2.5,1.3c-0.5-0.9-1.1-1.7-1.7-2.5l1.8-1.3
		c0.2-0.1,0.3-0.3,0.3-0.4c0.3-0.4,0.4-0.9,0.1-1.3c-0.1,0-0.3,0-0.4,0l-2.1-2.9c-0.4-0.5-1.1-0.6-1.5-0.2l-2.3,1.7
		c-0.7-0.8-1.4-1.6-2.2-2.3l1.8-1.8c0.4-0.4,0.4-1.1,0-1.6l-2.7-2.7c-0.4-0.4-1.1-0.4-1.6,0l-2,2c-0.8-0.7-1.6-1.3-2.5-1.9l1.5-2.1
		c0.4-0.5,0.2-1.2-0.2-1.5l-1.5-1.1l-1.5-1.1c-0.5-0.4-1.2-0.2-1.5,0.2l-0.6,0.8l-1.1,1.5c-0.9-0.5-1.8-1-2.7-1.5c0,0,0,0-0.1,0
		l1.2-2.3c0.3-0.5,0.1-1.2-0.5-1.5l-3.4-1.7c-0.5-0.3-1.2-0.1-1.5,0.5l-1.3,2.5c-1-0.4-2-0.8-3-1.1l0.8-2.5c0.2-0.6-0.1-1.2-0.7-1.4
		l-3.6-1.2c-0.6-0.2-1.2,0.1-1.4,0.7l-0.9,2.7c-1-0.2-2.1-0.4-3.1-0.6l0.4-2.6c0.1-0.6-0.3-1.2-0.9-1.3l-1.3-0.2l-2.4-0.4
		c-0.6-0.1-1.2,0.3-1.3,0.9l-0.4,2.8c-0.3,0-0.7,0-1-0.1c-0.7,0-1.5-0.1-2.2-0.1v-2.6c0-0.6-0.5-1.1-1.1-1.1h-0.7h-3.1
		c-0.6,0-1.1,0.5-1.1,1.1v2.8c-0.3,0-0.6,0.1-0.9,0.1c-0.8,0.1-1.5,0.2-2.2,0.3l-0.4-2.6c-0.1-0.6-0.7-1-1.3-0.9l-0.3,0l-3.5,0.6
		c-0.6,0.1-1,0.7-0.9,1.3l0.4,2.8c-0.4,0.1-0.8,0.2-1.2,0.3c-0.6,0.2-1.3,0.4-1.9,0.5l-0.8-2.4c-0.2-0.6-0.8-0.9-1.4-0.7l-0.5,0.2
		l-3.1,1c-0.6,0.2-0.9,0.8-0.7,1.4l0.9,2.6c-0.7,0.3-1.4,0.6-2.1,1c-0.2,0.1-0.4,0.2-0.6,0.3c-0.1,0-0.1,0-0.2,0l-1.1-2.2
		c-0.3-0.5-0.9-0.8-1.5-0.5l-3.4,1.7c-0.4,0.2-0.6,0.5-0.6,0.9c0,0.2,0,0.4,0.1,0.6l1.2,2.4c-0.9,0.6-1.8,1.1-2.7,1.8l-1.4-2
		c-0.4-0.5-1.1-0.6-1.5-0.2l-3.1,2.2c-0.5,0.4-0.6,1.1-0.2,1.5l1.6,2.2c-0.8,0.7-1.6,1.4-2.4,2.2l-1.7-1.7c-0.4-0.4-1.1-0.4-1.6,0
		l-2.7,2.7c-0.3,0.3-0.4,0.8-0.3,1.2c0.1,0.2,0.1,0.3,0.3,0.4l1.8,1.8c-0.6,0.7-1.2,1.5-1.8,2.2l-1.9-1.4c-0.5-0.4-1.2-0.2-1.5,0.2
		l-2.2,3.1c0,0,0,0.1-0.1,0.1l-0.1,0.2c-0.4,0.5-0.2,1.2,0.2,1.5l2.1,1.5c-0.5,0.8-1,1.6-1.4,2.5l-2-1c-0.5-0.3-1.2-0.1-1.5,0.5
		l0,0.1c-0.1,0.1-0.1,0.1-0.2,0.2l-1.7,3.4c-0.3,0.5-0.1,1.2,0.5,1.5l2.2,1.1c-0.4,0.9-0.7,1.8-1,2.7l-2-0.7
		c-0.5-0.2-1.1,0.1-1.3,0.6c-0.1,0.1-0.2,0.3-0.2,0.4l-1.2,3.6c-0.2,0.6,0.1,1.2,0.7,1.4l2.3,0.7c-0.2,0.9-0.4,1.9-0.6,2.9l-2-0.3
		c-0.5-0.1-1,0.2-1.2,0.6c-0.1,0.2-0.3,0.4-0.3,0.6l-0.6,3.8c-0.1,0.6,0.3,1.2,0.9,1.3l2.3,0.4c-0.1,1-0.1,2-0.1,2.9h-1.9
		c-0.4,0-0.8,0.3-1,0.7c-0.2,0.2-0.3,0.5-0.3,0.7v3.8c0,0.6,0.5,1.1,1.1,1.1h2.3c0.1,1,0.2,2,0.3,3l-1.8,0.3
		c-0.4,0.1-0.7,0.3-0.8,0.6c-0.2,0.2-0.3,0.6-0.3,0.9l0.6,3.8c0.1,0.6,0.7,1,1.3,0.9l2.2-0.4c0.2,1,0.5,2,0.8,2.9l-1.6,0.5
		c-0.3,0.1-0.5,0.3-0.7,0.6c-0.3,0.3-0.4,0.7-0.2,1.1l1.2,3.6c0.2,0.6,0.8,0.9,1.4,0.7l2.1-0.7c0.4,1,0.8,1.9,1.3,2.8l-1.5,0.7
		c-0.2,0.1-0.4,0.3-0.5,0.5c-0.3,0.3-0.4,0.8-0.2,1.3l1.7,3.4c0.3,0.5,0.9,0.8,1.5,0.5l1.9-1c0.6,0.9,1.1,1.8,1.7,2.6l-1.3,0.9
		c-0.2,0.1-0.3,0.3-0.3,0.4c-0.4,0.4-0.4,1-0.1,1.4l2.2,3.1c0.4,0.5,1.1,0.6,1.5,0.2l1.7-1.2c0.7,0.8,1.4,1.6,2.2,2.4l-1.1,1.1
		c-0.1,0.1-0.2,0.2-0.2,0.3c-0.4,0.4-0.4,1.1,0,1.5l2.7,2.7c0.4,0.4,1.1,0.4,1.6,0l1.5-1.5c0.8,0.7,1.7,1.4,2.6,2l-0.9,1.2
		c0,0,0,0.1-0.1,0.1l-0.1,0.2c-0.4,0.5-0.2,1.2,0.2,1.5l3.1,2.2c0.5,0.4,1.2,0.2,1.5-0.2l1.2-1.7c0.9,0.6,1.9,1.1,2.9,1.6l-0.8,1.6
		c-0.3,0.5-0.1,1.2,0.5,1.5l3.4,1.7c0.5,0.3,1.2,0.1,1.5-0.5l0-0.1c0.1-0.1,0.1-0.1,0.2-0.2l0.8-1.5c1,0.4,2,0.8,3,1.1l-0.6,1.7
		c-0.2,0.6,0.1,1.2,0.7,1.4l3.6,1.2c0.5,0.2,1.1-0.1,1.3-0.6c0.1-0.1,0.2-0.3,0.2-0.4l0.5-1.6c1,0.2,2.1,0.4,3.1,0.6l-0.3,1.8
		c-0.1,0.6,0.3,1.2,0.9,1.3l3.8,0.6c0.5,0.1,1-0.2,1.2-0.6c0.1-0.2,0.3-0.4,0.3-0.6l0.3-1.8c1,0.1,2.1,0.1,3.1,0.1v1.8
		c0,0.6,0.5,1.1,1.1,1.1h3.8c0.4,0,0.8-0.3,1-0.7c0.2-0.2,0.3-0.5,0.3-0.7v-1.8c1-0.1,2.1-0.2,3.1-0.4l0.3,1.8
		c0.1,0.6,0.7,1,1.3,0.9l3.8-0.6c0.4-0.1,0.7-0.3,0.8-0.6c0.2-0.2,0.3-0.6,0.3-0.9l-0.3-1.9c1-0.3,2-0.5,2.9-0.8l0.6,1.8
		c0.2,0.6,0.8,0.9,1.4,0.7l3.6-1.2c0.3-0.1,0.5-0.3,0.7-0.6c0.3-0.3,0.4-0.7,0.2-1.1l-0.6-1.9c0.9-0.4,1.8-0.8,2.7-1.3l0.9,1.7
		c0.3,0.5,0.9,0.8,1.5,0.5l3.4-1.7c0.2-0.1,0.4-0.3,0.5-0.5c0.3-0.3,0.4-0.8,0.2-1.3l-0.9-1.8c0.8-0.5,1.6-1.1,2.4-1.7l1.2,1.6
		c0.4,0.5,1.1,0.6,1.5,0.2l3.1-2.2c0.2-0.1,0.3-0.3,0.3-0.4c0.4-0.4,0.4-1,0.1-1.4l-1.3-1.8c0.7-0.7,1.4-1.3,2.1-2l1.4,1.4
		c0.4,0.4,1.1,0.4,1.6,0l2.7-2.7c0.1-0.1,0.2-0.2,0.2-0.3c0.4-0.4,0.4-1.1,0-1.5l-1.6-1.6c0.6-0.8,1.2-1.5,1.8-2.3l1.7,1.2
		c0.5,0.4,1.2,0.2,1.5-0.2l2.2-3.1c0,0,0-0.1,0.1-0.1l0.1-0.2c0.4-0.5,0.2-1.2-0.2-1.5l-1.9-1.4c0.5-0.8,1-1.7,1.4-2.5l1.9,1
		c0.5,0.3,1.2,0.1,1.5-0.5l0-0.1c0.1-0.1,0.1-0.1,0.2-0.2l1.7-3.4c0.3-0.5,0.1-1.2-0.5-1.5l-2.2-1.1c0.4-0.9,0.7-1.8,1-2.7l2,0.7
		c0.5,0.2,1.1-0.1,1.3-0.6c0.1-0.1,0.2-0.3,0.2-0.4l1.2-3.6c0.2-0.6-0.1-1.2-0.7-1.4l-2.4-0.8c0.2-0.9,0.4-1.9,0.5-2.9l2.1,0.3
		c0.5,0.1,1-0.2,1.2-0.6c0.1-0.2,0.3-0.4,0.3-0.6l0.6-3.8c0.1-0.6-0.3-1.2-0.9-1.3l-2.5-0.4c0.1-1,0.1-1.9,0.1-2.9H179.8z"/>
	<g>
		<path class="st19" d="M370,156.9c-0.8,0.9-1,2.1-1.2,3.3c-0.7,5.1-1.1,10.3-1,15.5c0,0.3,0,0.5,0.1,0.8c0.3,0.6,1.1,0.6,1.7,0.6
			c1.6,0,3.9,0.2,6,0.3c0.6-4.5,0.9-8.9,1.1-13.5c0.1-2.5,0-5-0.5-7.3C373.8,156.3,370.5,156.3,370,156.9z"/>
	</g>
	<g>
		<path class="st19" d="M43.4,169.4c1.1-0.8,1.3-2.3,1.5-3.6c0.4-3.3,0.6-6.6,0.6-9.9c0-0.6,0-1.2-0.2-1.7c-0.6-1.4-3.2-1.5-5.7-1.4
			c-1.8,5.6-3.1,11.5-3.4,17.3C38.8,170.2,41.9,170.5,43.4,169.4z"/>
	</g>
	<g>
		<circle class="st5" cx="120.6" cy="259.3" r="28.9"/>
		<circle cx="120.7" cy="237.5" r="2.3"/>
		<ellipse transform="matrix(0.5 -0.866 0.866 0.5 -164.0995 212.3269)" cx="101.8" cy="248.3" rx="2.3" ry="2.3"/>
		<ellipse transform="matrix(0.866 -0.5 0.5 0.866 -121.3887 87.0162)" cx="101.7" cy="270" rx="2.3" ry="2.3"/>
		<circle cx="120.4" cy="281" r="2.3"/>
		<ellipse transform="matrix(0.5 -0.866 0.866 0.5 -164.4013 255.8173)" cx="139.3" cy="270.3" rx="2.3" ry="2.3"/>
		<ellipse transform="matrix(0.866 -0.5 0.5 0.866 -105.5791 103.0426)" cx="139.5" cy="248.5" rx="2.3" ry="2.3"/>
		<circle cx="120.4" cy="259.2" r="8.4"/>
	</g>
	<circle class="st5" cx="337.6" cy="259.3" r="28.9"/>
	<circle cx="337.7" cy="237.5" r="2.3"/>
	<ellipse transform="matrix(0.5 -0.866 0.866 0.5 -55.6032 400.249)" cx="318.8" cy="248.3" rx="2.3" ry="2.3"/>
	<ellipse transform="matrix(0.866 -0.5 0.5 0.866 -92.3187 195.5206)" cx="318.7" cy="270" rx="2.3" ry="2.3"/>
	<circle cx="337.4" cy="281" r="2.3"/>
	<ellipse transform="matrix(0.5 -0.866 0.866 0.5 -55.9018 443.7471)" cx="356.3" cy="270.3" rx="2.3" ry="2.3"/>
	<ellipse transform="matrix(0.866 -0.5 0.5 0.866 -76.5088 211.5372)" cx="356.5" cy="248.5" rx="2.3" ry="2.3"/>
	<circle cx="337.3" cy="259.2" r="8.4"/>
</g>
</svg>
